<?xml version="1.0" encoding="utf-8"?>
<!-- Generator: Adobe Illustrator 16.0.0, SVG Export Plug-In . SVG Version: 6.00 Build 0)  -->
<!DOCTYPE svg PUBLIC "-//W3C//DTD SVG 1.1//EN" "http://www.w3.org/Graphics/SVG/1.1/DTD/svg11.dtd" [
	<!ENTITY ns_flows "http://ns.adobe.com/Flows/1.0/">
	<!ENTITY ns_extend "http://ns.adobe.com/Extensibility/1.0/">
	<!ENTITY ns_ai "http://ns.adobe.com/AdobeIllustrator/10.0/">
	<!ENTITY ns_graphs "http://ns.adobe.com/Graphs/1.0/">
]>
<svg version="1.1" id="Layer_1" xmlns:x="&ns_extend;" xmlns:i="&ns_ai;" xmlns:graph="&ns_graphs;"
	 xmlns="http://www.w3.org/2000/svg" xmlns:xlink="http://www.w3.org/1999/xlink" xmlns:a="http://ns.adobe.com/AdobeSVGViewerExtensions/3.0/"
	 x="0px" y="0px" width="32px" height="32px" viewBox="0 0 32 32" style="enable-background:new 0 0 32 32;" xml:space="preserve" preserveAspectRatio="xMidYMid meet">
<style type="text/css">
 <![CDATA[
	.ccm{fill:#000000;}
]]>
</style>
<g>
	<path class="ccm" d="M20.741,12.143c0.057-0.056,0.113-0.056,0.169-0.056c0.057,0,0.112,0,0.169,0.056l2.08,2.964
		c0.113,0.112,0.057,0.336-0.056,0.392l-3.937,2.293c-0.112,0.056-0.225,0.167-0.225,0.279c0,0.056,0.112,0.224,0.225,0.335
		l2.812,3.971c0,0.057,0.057,0.112,0.057,0.168c0,0.112-0.057,0.224-0.169,0.279l-2.98,1.79c-0.056,0.056-0.168,0.056-0.225,0.056
		c-0.112,0-0.169-0.056-0.225-0.111l-2.362-4.418c-0.056-0.112-0.112-0.224-0.168-0.224c-0.113,0-0.169,0.111-0.169,0.224
		l-2.418,4.418c-0.112,0.111-0.281,0.167-0.394,0.056L9.89,22.769c-0.112-0.056-0.225-0.224-0.112-0.335l2.924-4.027
		c0.056-0.111,0.168-0.224,0.168-0.335c0-0.056-0.112-0.168-0.281-0.28l-3.879-2.236c-0.113-0.056-0.113-0.168-0.113-0.28
		c0-0.056,0-0.112,0.056-0.224l2.024-2.852c0.056-0.112,0.169-0.168,0.337-0.112l2.643,2.237c0.113,0.056,0.169,0.112,0.225,0.112
		c0.112,0,0.168-0.167,0.112-0.28L13.77,9.347c0-0.168,0.112-0.335,0.281-0.335h3.655c0.169,0,0.281,0.112,0.281,0.279l-0.225,4.81
		c0,0.112,0,0.335,0.112,0.335c0.057,0,0.169-0.112,0.281-0.167L20.741,12.143z"/>
</g>
</svg>
