<?xml version="1.0" encoding="utf-8"?>
<!-- Generated by IcoMoon.io -->
<!DOCTYPE svg PUBLIC "-//W3C//DTD SVG 1.1//EN" "http://www.w3.org/Graphics/SVG/1.1/DTD/svg11.dtd">
<svg version="1.1" xmlns="http://www.w3.org/2000/svg" xmlns:xlink="http://www.w3.org/1999/xlink" width="32" height="32" viewBox="0 0 32 32">
<g id="icomoon-ignore">
</g>
<path d="M23.923 9.331c0.092-0.090 0.184-0.090 0.275-0.090s0.185 0 0.276 0.090l3.403 4.77c0.185 0.18 0.092 0.54-0.092 0.63l-6.439 3.689c-0.185 0.092-0.368 0.271-0.368 0.451 0 0.090 0.184 0.359 0.368 0.539l4.6 6.391c0 0.090 0.092 0.18 0.092 0.27 0 0.18-0.092 0.359-0.275 0.449l-4.876 2.88c-0.092 0.090-0.276 0.090-0.368 0.090-0.184 0-0.276-0.090-0.368-0.18l-3.864-7.109c-0.092-0.18-0.184-0.361-0.276-0.361-0.184 0-0.276 0.182-0.276 0.361l-3.956 7.109c-0.184 0.18-0.46 0.27-0.644 0.090l-4.968-2.97c-0.184-0.090-0.368-0.359-0.184-0.539l4.784-6.48c0.092-0.18 0.276-0.359 0.276-0.539 0-0.090-0.184-0.27-0.46-0.451l-6.348-3.599c-0.184-0.090-0.184-0.27-0.184-0.45 0-0.090 0-0.18 0.092-0.36l3.312-4.59c0.092-0.18 0.276-0.27 0.552-0.18l4.324 3.6c0.184 0.090 0.276 0.18 0.368 0.18 0.184 0 0.276-0.27 0.184-0.45l-0.368-7.739c0-0.27 0.184-0.54 0.46-0.54h5.98c0.275 0 0.46 0.18 0.46 0.45l-0.368 7.74c0 0.18 0 0.54 0.184 0.54 0.092 0 0.276-0.18 0.46-0.27l4.232-3.422z" fill="#000000"></path>
</svg>
