<?xml version="1.0" encoding="utf-8"?>
<!-- Generator: Adobe Illustrator 16.0.0, SVG Export Plug-In . SVG Version: 6.00 Build 0)  -->
<!DOCTYPE svg PUBLIC "-//W3C//DTD SVG 1.1//EN" "http://www.w3.org/Graphics/SVG/1.1/DTD/svg11.dtd">
<svg version="1.1" id="Layer_1" xmlns="http://www.w3.org/2000/svg" xmlns:xlink="http://www.w3.org/1999/xlink" x="0px" y="0px"
	 width="32px" height="16.974px" viewBox="0 0 32 16.974" enable-background="new 0 0 32 16.974" xml:space="preserve">
<path d="M20.922,3.446c0.029-0.028,0.061-0.048,0.09-0.062c0.031-0.013,0.062-0.02,0.09-0.02c0.029,0,0.058,0.006,0.08,0.02
	c0.025,0.013,0.051,0.033,0.078,0.062l1.04,1.482l1.04,1.482c0.057,0.056,0.07,0.14,0.057,0.217
	c-0.013,0.077-0.057,0.147-0.111,0.175l-1.971,1.147l-1.971,1.146c-0.056,0.027-0.121,0.074-0.168,0.125
	c-0.047,0.054-0.07,0.111-0.047,0.16c0.018,0.031,0.047,0.082,0.085,0.142c0.039,0.059,0.085,0.125,0.13,0.188l1.406,1.986
	l1.404,1.984c0,0.029,0.016,0.057,0.027,0.084c0.017,0.029,0.028,0.057,0.028,0.084c0,0.057-0.017,0.113-0.043,0.162
	s-0.069,0.09-0.127,0.117l-1.49,0.895l-1.487,0.896c-0.027,0.025-0.068,0.043-0.111,0.049c-0.042,0.008-0.084,0.008-0.113,0.008
	c-0.055,0-0.098-0.014-0.133-0.035c-0.035-0.021-0.062-0.049-0.094-0.076l-1.182-2.209l-1.181-2.209
	c-0.028-0.055-0.061-0.092-0.093-0.112c-0.032-0.022-0.064-0.029-0.092-0.024c-0.054,0.01-0.092,0.045-0.117,0.077
	c-0.025,0.031-0.036,0.062-0.036,0.062l-1.209,2.209l-1.209,2.209c-0.056,0.057-0.126,0.1-0.196,0.113
	c-0.07,0.014-0.141,0-0.198-0.056L11.583,15l-1.517-0.927c-0.056-0.026-0.112-0.084-0.141-0.146
	c-0.029-0.062-0.028-0.133,0.028-0.188l1.462-2.012l1.462-2.013c0.028-0.056,0.07-0.11,0.105-0.168s0.063-0.11,0.063-0.168
	c0-0.028-0.028-0.069-0.077-0.121c-0.049-0.049-0.12-0.104-0.204-0.157l-1.938-1.12L8.89,6.861C8.834,6.834,8.789,6.78,8.762,6.722
	c-0.027-0.058-0.035-0.12-0.02-0.167c0.01-0.029,0.019-0.05,0.032-0.079c0.013-0.028,0.031-0.063,0.059-0.119l1.012-1.426
	l1.012-1.426c0.028-0.056,0.07-0.098,0.126-0.119s0.126-0.021,0.21,0.007l1.329,1.104l1.329,1.104
	c0.031,0.023,0.07,0.059,0.107,0.088c0.038,0.029,0.075,0.052,0.103,0.052c0.056,0,0.082-0.031,0.093-0.08
	c0.011-0.048,0.007-0.115,0.004-0.184l-0.112-2.405l-0.112-2.405c0.008-0.092,0.04-0.18,0.091-0.245
	c0.051-0.064,0.121-0.106,0.206-0.106h1.828h1.828c0.084,0,0.154,0.028,0.203,0.077c0.049,0.049,0.076,0.119,0.076,0.202
	l-0.104,2.386l-0.104,2.385c-0.008,0.156-0.008,0.242,0.006,0.292c0.017,0.05,0.041,0.066,0.091,0.081
	c0.024,0.009,0.067-0.019,0.116-0.056c0.052-0.037,0.104-0.083,0.16-0.111l1.294-1.064L20.922,3.446z"/>
</svg>
