<svg xmlns:x="http://ns.adobe.com/Extensibility/1.0/" xmlns:i="http://ns.adobe.com/AdobeIllustrator/10.0/" xmlns:graph="http://ns.adobe.com/Graphs/1.0/" xmlns="http://www.w3.org/2000/svg" xmlns:xlink="http://www.w3.org/1999/xlink" xmlns:a="http://ns.adobe.com/AdobeSVGViewerExtensions/3.0/" version="1.1" id="Layer_1" x="0px" y="0px" width="32px" height="32px" viewBox="0 0 32 32" xml:space="preserve" preserveAspectRatio="xMidYMid meet" class="style0"><style>.style0{enable-background:	new 0 0 32 32;}</style><style type="text/css">.ccm{fill:#000000;}</style><g>

 <path d="M20.838,4.361c0.029-0.028,0.06-0.048,0.09-0.062c0.031-0.013,0.062-0.02,0.09-0.02c0.029,0,0.055,0.006,0.08,0.02
  c0.025,0.013,0.05,0.033,0.078,0.062l1.04,1.482l1.04,1.482c0.056,0.056,0.07,0.14,0.057,0.217
  c-0.014,0.077-0.057,0.147-0.113,0.175L21.23,8.864l-1.969,1.146c-0.056,0.028-0.122,0.074-0.168,0.126
  c-0.047,0.052-0.072,0.11-0.047,0.159c0.016,0.031,0.047,0.082,0.085,0.141c0.039,0.059,0.085,0.125,0.13,0.188l1.406,1.986
  l1.405,1.985c0,0.028,0.015,0.056,0.028,0.084c0.015,0.028,0.029,0.056,0.029,0.084c0,0.056-0.015,0.112-0.043,0.161
  s-0.07,0.091-0.127,0.118l-1.49,0.895l-1.489,0.895c-0.028,0.028-0.069,0.043-0.112,0.05c-0.042,0.007-0.084,0.007-0.113,0.007
  c-0.055,0-0.098-0.014-0.133-0.035s-0.064-0.049-0.093-0.076l-1.181-2.209l-1.18-2.209c-0.028-0.056-0.061-0.093-0.093-0.115
  c-0.032-0.022-0.064-0.029-0.092-0.025c-0.054,0.01-0.092,0.045-0.117,0.078c-0.025,0.032-0.036,0.062-0.036,0.062l-1.209,2.209
  l-1.209,2.209c-0.056,0.056-0.126,0.098-0.196,0.112s-0.141,0.001-0.198-0.054l-1.516-0.924l-1.517-0.924
  c-0.056-0.028-0.112-0.084-0.141-0.147s-0.028-0.133,0.028-0.188l1.462-2.012l1.462-2.012c0.028-0.055,0.07-0.112,0.105-0.168
  c0.035-0.056,0.063-0.112,0.063-0.167c0-0.03-0.028-0.072-0.077-0.121s-0.12-0.104-0.204-0.159l-1.939-1.119L8.806,7.776
  C8.75,7.749,8.705,7.695,8.678,7.637S8.643,7.517,8.658,7.47c0.01-0.029,0.019-0.05,0.032-0.079
  c0.013-0.028,0.031-0.063,0.059-0.119l1.012-1.426l1.012-1.426c0.028-0.056,0.07-0.098,0.126-0.119
  c0.056-0.021,0.126-0.021,0.21,0.007l1.329,1.104l1.329,1.104c0.031,0.023,0.07,0.059,0.107,0.088
  c0.038,0.029,0.075,0.052,0.103,0.052c0.056,0,0.082-0.031,0.093-0.08c0.011-0.048,0.007-0.115,0.004-0.184l-0.112-2.405
  l-0.112-2.405c0.008-0.092,0.04-0.18,0.091-0.245c0.051-0.064,0.121-0.106,0.206-0.106h1.828h1.828c0.084,0,0.154,0.028,0.203,0.077
  s0.076,0.119,0.076,0.202l-0.103,2.386l-0.103,2.385c-0.008,0.156-0.008,0.242,0.006,0.292s0.041,0.066,0.088,0.081
  c0.027,0.009,0.07-0.019,0.119-0.056s0.104-0.083,0.16-0.111l1.294-1.064L20.838,4.361z"/>

</g></svg>